<?xml version="1.0" encoding="UTF-8" standalone="no"?>
<!-- Created with Inkscape (http://www.inkscape.org/) -->

<svg
   version="1.1"
   id="svg2"
   width="128.00003"
   height="128"
   viewBox="0 0 128.00003 128"
   sodipodi:docname="greenmouse.svg"
   inkscape:export-filename="C:\Users\souha\Documents\GitHub\icons\icones\mouseround.png"
   inkscape:export-xdpi="27"
   inkscape:export-ydpi="27"
   inkscape:version="1.1 (c68e22c387, 2021-05-23)"
   xmlns:inkscape="http://www.inkscape.org/namespaces/inkscape"
   xmlns:sodipodi="http://sodipodi.sourceforge.net/DTD/sodipodi-0.dtd"
   xmlns="http://www.w3.org/2000/svg"
   xmlns:svg="http://www.w3.org/2000/svg">
  <defs
     id="defs6" />
  <sodipodi:namedview
     id="namedview4"
     pagecolor="#505050"
     bordercolor="#eeeeee"
     borderopacity="1"
     inkscape:pageshadow="0"
     inkscape:pageopacity="0"
     inkscape:pagecheckerboard="0"
     showgrid="false"
     inkscape:zoom="4.1360706"
     inkscape:cx="48.355074"
     inkscape:cy="68.059766"
     inkscape:window-width="1920"
     inkscape:window-height="991"
     inkscape:window-x="-9"
     inkscape:window-y="-9"
     inkscape:window-maximized="1"
     inkscape:current-layer="g8" />
  <g
     inkscape:groupmode="layer"
     inkscape:label="Image"
     id="g8"
     transform="translate(-0.02824053,-1.0015061)">
    <rect
       style="fill:#0aa99a;fill-opacity:1;fill-rule:evenodd;stroke-width:1.00363"
       id="rect1046"
       width="128"
       height="128"
       x="0.02824053"
       y="1.0015061" />
    <path
       style="fill:#ffffff;stroke-width:0.130659"
       d="M 59.032094,128.87412 C 55.491848,128.66265 52.792431,128.22721 48.576715,127.18756 37.038269,124.34203 27.122099,118.74779 18.71054,110.33844 9.548623,101.17893 3.8226349,90.423187 1.1496743,77.351973 0.32503142,73.319335 0.02824053,70.121567 0.02824053,65.269105 c 0,-6.123755 0.50474941,-10.367354 1.89574307,-15.938151 C 6.1314035,32.480637 16.984182,18.090589 31.974645,9.4858147 33.850031,8.4093124 37.972571,6.4196803 39.951028,5.6362307 47.196358,2.7671501 55.698194,1.0009658 62.261082,1.0015062 67.110806,1.0019055 71.889036,1.3268469 74.976547,1.866216 92.736,4.9686822 108.06611,15.077297 117.94674,30.200601 c 5.3621,8.207234 8.99863,18.625512 9.91541,28.406599 0.22057,2.353292 0.22174,10.904357 0.002,13.06256 -0.86104,8.44854 -3.89277,17.893834 -8.11384,25.278492 -5.46964,9.568998 -13.9936,18.107898 -23.592949,23.634308 -6.825372,3.92941 -15.153983,6.77079 -23.337026,7.96164 -3.002041,0.43688 -9.424565,0.59055 -13.788031,0.32992 z m 9.031458,-7.56788 c 18.686144,-1.46218 34.926098,-11.43918 44.562308,-27.376795 4.29032,-7.095897 6.90502,-14.908398 7.85032,-23.456105 0.30329,-2.74245 0.30356,-8.437704 5.4e-4,-11.213012 C 118.78444,43.760927 111.35753,30.094298 99.415995,20.505405 85.339596,9.2022443 66.338685,5.3159918 49.010813,10.196043 34.542616,14.270724 22.608185,23.421885 15.130633,36.174911 5.6462684,52.350572 4.8591518,72.387931 13.043965,89.294497 c 1.428487,2.950686 2.120785,4.165605 3.913344,6.867563 4.853863,7.31632 11.31283,13.36212 19.007606,17.79175 7.141717,4.11125 15.336107,6.65757 23.631127,7.34314 1.874333,0.1549 6.541145,0.16003 8.46751,0.009 z M 61.711285,98.304777 C 54.676978,97.520122 48.461637,93.04871 45.31025,86.505619 c -0.894808,-1.85785 -1.585641,-3.910965 -1.761434,-5.234878 -0.143406,-1.079996 -0.467441,-27.12175 -0.341555,-27.44964 0.05761,-0.150044 3.364394,-0.173213 20.754518,-0.145422 l 20.685993,0.03306 0.0387,12.14818 c 0.04158,13.053107 -0.02553,15.143834 -0.552716,17.221021 -1.17094,4.613626 -4.324421,8.990351 -8.503744,11.802368 -3.999101,2.690757 -9.1454,3.956918 -13.918723,3.424468 z M 43.414372,51.275097 c 0,-0.389835 0.440425,-2.904498 0.666151,-3.803473 1.736283,-6.914921 7.03842,-12.561949 13.953149,-14.86077 1.537406,-0.511115 4.533895,-1.145229 4.687284,-0.991919 0.226104,0.225988 0.278924,2.177093 0.287711,10.627408 l 0.0095,9.176448 H 53.21629 c -7.202686,0 -9.801918,-0.03916 -9.801918,-0.147694 z m 21.984053,-9.551256 c 0.02509,-5.334423 0.09422,-9.801819 0.153608,-9.927546 0.141294,-0.299109 0.329032,-0.290492 2.285367,0.104896 2.042327,0.412768 3.611518,0.930991 5.309082,1.753317 5.015384,2.429529 8.905983,6.860882 10.659019,12.140515 0.554149,1.668931 1.226739,5.099767 1.036987,5.289587 -0.214689,0.214765 -3.767971,0.310524 -12.063968,0.325119 l -7.425717,0.01306 z"
       id="path899"
       inkscape:export-filename="C:\Users\souha\Documents\GitHub\icons\icones\mouseround.png"
       inkscape:export-xdpi="27"
       inkscape:export-ydpi="27" />
  </g>
</svg>
